<svg width="70" height="42" viewBox="0 0 112 42" fill="none" xmlns="http://www.w3.org/2000/svg">
<path d="M20.636 32.014L0.766296 21.9729V19.6119L20.636 9.5708V12.4443L4.13993 20.7794L20.636 29.1405V32.014Z" fill="white"/>
<path d="M47.0394 0.677856L24.8393 41.3286H21.8744L44.0257 0.677856H47.0394Z" fill="white"/>
<path d="M64.8288 2.84432L64.5055 4.21945C64.0601 4.23243 63.4806 4.2973 62.7668 4.40757C62.053 4.51784 61.5223 4.62161 61.1745 4.71891C60.5706 4.90053 60.1435 5.17945 59.8873 5.55567C59.6311 5.93188 59.4419 6.34702 59.326 6.79459L54.1588 28.44C54.1283 28.5308 54.11 28.6411 54.0917 28.7708C54.0795 28.894 54.0673 29.0043 54.0673 29.1016C54.0673 29.4194 54.1405 29.6919 54.2808 29.9189C54.4211 30.1459 54.6835 30.334 55.0556 30.5027C55.2691 30.6 55.745 30.7167 56.471 30.8465C57.203 30.9762 57.746 31.0605 58.1059 31.0865L57.7826 32.4616H44.0379L44.3612 31.0865C44.7639 31.0605 45.3373 31.0151 46.0816 30.9632C46.8259 30.9049 47.3566 30.827 47.6739 30.7102C48.2351 30.5157 48.6561 30.2432 48.9428 29.9059C49.2295 29.5686 49.4248 29.1535 49.5224 28.667L54.6774 6.99567C54.7079 6.87242 54.7262 6.74268 54.7445 6.61944C54.7628 6.4962 54.7689 6.36648 54.7689 6.24323C54.7689 5.96431 54.7079 5.72431 54.5859 5.51026C54.4639 5.30269 54.2076 5.11459 53.8233 4.94594C53.4389 4.77729 52.9082 4.62161 52.2432 4.47242C51.5783 4.32323 51.0841 4.23891 50.773 4.21296L51.0963 2.83783H64.8288V2.84432Z" fill="white"/>
<path d="M72.723 33.0778C70.9599 33.0778 69.4164 32.8638 68.0926 32.4422C66.7688 32.0205 65.6951 31.5276 64.8837 30.9697L63.6575 32.494H61.9371L64.0418 22.3492H65.7805C65.8537 23.5621 66.0184 24.6973 66.2868 25.7546C66.5491 26.8119 66.9823 27.7654 67.5862 28.6151C68.1841 29.4908 68.965 30.1719 69.9228 30.6519C70.8806 31.1319 72.0641 31.3719 73.4794 31.3719C75.6086 31.3719 77.3167 30.7946 78.604 29.6465C79.8912 28.4984 80.5317 26.9286 80.5317 24.9373C80.5317 23.867 80.2572 22.9135 79.7143 22.0767C79.1713 21.24 78.3538 20.5913 77.2679 20.1373C76.2369 19.7027 75.2181 19.32 74.2115 18.9762C73.2049 18.6324 72.2105 18.2367 71.2405 17.7762C69.9533 17.1794 68.9162 16.3167 68.1292 15.1946C67.3422 14.0724 66.9518 12.814 66.9518 11.4065C66.9518 10.0703 67.2568 8.83783 67.8669 7.70918C68.4769 6.58053 69.2822 5.60755 70.2827 4.78377C71.2588 3.99242 72.4362 3.35675 73.815 2.88323C75.1998 2.40972 76.5664 2.17621 77.9268 2.17621C79.2018 2.17621 80.4097 2.32539 81.5445 2.61728C82.6853 2.90918 83.8261 3.46053 84.973 4.26486L86.1565 2.84432H87.8769L85.7051 12.6778H83.9664C83.9237 11.6076 83.8139 10.4984 83.637 9.35673C83.46 8.21511 83.155 7.2681 82.728 6.51567C82.2582 5.69189 81.5993 5.04972 80.7514 4.58269C79.9095 4.11566 78.787 3.88216 77.3838 3.88216C75.694 3.88216 74.2786 4.44648 73.1378 5.58161C71.9909 6.71675 71.4235 8.06593 71.4235 9.62268C71.4235 10.654 71.6309 11.5232 72.058 12.2432C72.4789 12.9632 73.1317 13.5405 74.0224 13.9881C74.968 14.4616 75.9563 14.8703 76.9934 15.2076C78.0305 15.5513 78.9578 15.9081 79.7692 16.2843C81.4102 17.0367 82.6975 17.9384 83.6187 18.9957C84.5399 20.053 85.0035 21.3503 85.0035 22.8811C85.0035 24.3535 84.6741 25.7351 84.0152 27.013C83.3563 28.2908 82.4778 29.3676 81.3736 30.2303C80.2145 31.1513 78.9151 31.8519 77.4753 32.3384C76.0417 32.8313 74.4555 33.0778 72.723 33.0778Z" fill="white"/>
<path d="M111.492 21.9729L91.6227 32.014V29.1405L108.119 20.7794L91.6227 12.4443V9.5708L111.492 19.6119V21.9729Z" fill="white"/>
</svg>
